# xmcd
#
# Track frame offsets: 
#        150
#        11386
#        27413
#        44838
#        62018
#        80825
#        100405
#        115500
#        128384
#        148591
#        164578
#        181931
#        197619
#        209199
#        229270
#
# Disc length: 3224 seconds
#
# Revision: 2
# Processed by: cddbd v1.5.1PL0 Copyright (c) Steve Scherf et al.
# Submitted via: ExactAudioCopy v0.95a5
#
DISCID=d50c960f
DTITLE=Various Artist - Instrumental Gems
DYEAR=2004
DGENRE=Blues
TTITLE0=Eddie C. Campbell - Hey The Blues Is All Right
TTITLE1=Charlie Musselwhite - Chicago Sunset
TTITLE2=Deanna Bogart and Danny Gatton - Ethel's Place
TTITLE3=Bill Perry - Morning Spiritual
TTITLE4=Chris Cain - Gin and Soda
TTITLE5=Mr. B and JC Heard - Little Brother
TTITLE6=Chubby CHecker and The Bayou Swamp Band - Luziana Fellin'
TTITLE7=Magic Slim and The Teardrops - Black Tornado
TTITLE8=Tommy Castro - Hycodan
TTITLE9=Wille "Big Eyes" Smith and Kim Wilson - WSKW Special
TTITLE10=Mitch Woods and His Rocket 88s - Bonin'
TTITLE11=Bob Margolin - Consolation
TTITLE12=Nick Curran and The Nitelifes - Stompin' At The Fort
TTITLE13=Chicago Rhythm and Blues Kings - Mo-Too-Do-Loo
TTITLE14=Walter Horton - Skip It
EXTD=
EXTT0=
EXTT1=
EXTT2=
EXTT3=
EXTT4=
EXTT5=
EXTT6=
EXTT7=
EXTT8=
EXTT9=
EXTT10=
EXTT11=
EXTT12=
EXTT13=
EXTT14=
PLAYORDER=
